# xmcd
#
# Track frame offsets:
#	180
#	19456
#	35819
#	57396
#	69157
#	88188
#	106226
#	121290
#	133955
#	148022
#
# Disc length: 2176 seconds
#
# Revision: 1
# Processed by: cddbd v1.5.2PL0 Copyright (c) Steve Scherf et al.
# Submitted via: EasyCDDAExtractor 7.0.3.1
#
DISCID=96087e0a
DTITLE=Burgan, Janet - Janet Burgan
DYEAR=1900
DGENRE=Country
TTITLE0=Don't Think About Her When You're Trying to Drive
TTITLE1=Walkin On the Moon
TTITLE2=Icy Blue Heart
TTITLE3=(I've Been) Hangin' Mighty Fine
TTITLE4=Haley's Comet
TTITLE5=Trouble in the Fields
TTITLE6=4th Of July
TTITLE7=Range War
TTITLE8=Dancing Shoes
TTITLE9=If Anything Comes To Mind
EXTD=
EXTT0=
EXTT1=
EXTT2=
EXTT3=
EXTT4=
EXTT5=
EXTT6=
EXTT7=
EXTT8=
EXTT9=
PLAYORDER=
